<svg xmlns="http://www.w3.org/2000/svg" viewBox="0 0 364.73 434.93"><defs><style>.cls-1{fill:#e94e1b;}.cls-2{fill:#3c3c3b;}.cls-3{fill:#1d1d1b;}.cls-4{fill:#ededed;}.cls-5{fill:#dadada;}.cls-6{fill:#c6c6c6;}</style></defs><title>01robot-ldpi</title><g id="Capa_2" data-name="Capa 2"><g id="Capa_1-2" data-name="Capa 1"><rect class="cls-1" x="22.43" width="323.29" height="175.34" rx="87.67"/><rect class="cls-2" x="48.46" y="19.18" width="271.23" height="136.99" rx="68.49"/><rect class="cls-3" x="61.03" y="25.52" width="246.1" height="124.29" rx="62.15"/><path class="cls-1" d="M184.08,188,69,201.24s9.59,209,115.07,233.69Z"/><path class="cls-1" d="M184.08,188l115.07,13.28s-9.59,209-115.07,233.69Z"/><path class="cls-1" d="M251,236.1l-35.46,27s74.81,106.11,119.91,100.4Z"/><path class="cls-1" d="M251,236.1l44.54-13.26s68.15,109.46,39.91,140.61Z"/><path class="cls-1" d="M113.74,236.21l35.46,27S74.38,369.28,29.29,363.56Z"/><path class="cls-1" d="M113.74,236.21,69.2,223S1.05,332.42,29.29,363.56Z"/><circle class="cls-4" cx="126.54" cy="72.55" r="22.43"/><circle class="cls-5" cx="241.61" cy="72.55" r="22.43"/><circle class="cls-1" cx="342.29" cy="80.11" r="22.43"/><circle class="cls-1" cx="22.43" cy="80.11" r="22.43"/><ellipse class="cls-5" cx="184.08" cy="120.11" rx="30.7" ry="11.34"/><circle class="cls-3" cx="183.7" cy="262.01" r="49.43"/><circle class="cls-6" cx="183.7" cy="262.01" r="35.48"/></g></g></svg>