<svg xmlns="http://www.w3.org/2000/svg" viewBox="0 0 368.06 430.87"><defs><style>.cls-1{fill:#ededed;}</style></defs><title>01Recurso 2</title><g id="Capa_2" data-name="Capa 2"><g id="Capa_1-2" data-name="Capa 1"><ellipse class="cls-1" cx="185.28" cy="114.72" rx="30.7" ry="11.34"/><path class="cls-1" d="M22.43,103.38a20.18,20.18,0,0,0,2.21-.12,87.7,87.7,0,0,0,86.29,72.08H258.87a87.69,87.69,0,0,0,86.27-72l.49,0a22.44,22.44,0,0,0,0-44.87,23.28,23.28,0,0,0-3.94.35A87.7,87.7,0,0,0,258.87,0H110.93A87.69,87.69,0,0,0,28,59.23a22.1,22.1,0,0,0-5.55-.72,22.44,22.44,0,0,0,0,44.87ZM63.65,87.67a65.56,65.56,0,0,1,65.56-65.55H239.83a65.56,65.56,0,0,1,65.56,65.55h0a65.56,65.56,0,0,1-65.56,65.56H129.21A65.56,65.56,0,0,1,63.65,87.67Z"/><path class="cls-1" d="M187.4,235.13c-.66,0-1.31,0-2,.07s-1.31-.07-2-.07a35.48,35.48,0,0,0,0,71c.66,0,1.32,0,2-.07s1.3.07,2,.07a35.48,35.48,0,0,0,0-71Z"/><path class="cls-1" d="M300,197.18,186,184v-.13l-.54.07-.54-.07V184l-114,13.16s.36,7.77,1.69,20.5c-14.87,25.55-58.93,106.7-35.26,132.81,16.65,2.11,37.35-11,56.84-28.44,16.4,49.32,44.11,97,90.72,108.55v.27l.54-.14.54.14v-.27c45.81-11.33,73.36-57.6,89.86-106,18.63,16.13,38.12,27.9,54,25.9C352,326,314.7,253.28,297.68,223.17,299.51,207.22,300,197.18,300,197.18ZM187.4,320c-.47,0-1,0-1.42,0v0H184.9v0c-.48,0-1,0-1.43,0a49.43,49.43,0,0,1,0-98.86c.48,0,.95,0,1.43,0v0l.54,0,.54,0v0c.47,0,1,0,1.42,0a49.43,49.43,0,0,1,0,98.86Z"/><circle class="cls-1" cx="126.69" cy="74.22" r="29.16" transform="translate(-15.37 111.32) rotate(-45)"/><circle class="cls-1" cx="246.24" cy="74.22" r="29.16" transform="translate(19.64 195.86) rotate(-45)"/></g></g></svg>