<svg xmlns="http://www.w3.org/2000/svg" viewBox="0 0 300.64 300.64"><defs><style>.cls-1,.cls-2,.cls-3{fill:none;stroke-miterlimit:10;stroke-width:3px;}.cls-1{stroke:#c6c6c6;}.cls-2{stroke:#b2b2b2;}.cls-3{stroke:#e6332a;}.cls-4{font-size:6.24px;fill:#1d1d1b;font-family:Roboto-Medium, Roboto;font-weight:500;}</style></defs><title>01Recurso 2ldpi</title><g id="Capa_2" data-name="Capa 2"><g id="Capa_1-2" data-name="Capa 1"><line class="cls-1" x1="8.59" y1="207.01" x2="292.05" y2="207.01"/><line class="cls-1" x1="8.59" y1="192.84" x2="292.05" y2="192.84"/><line class="cls-1" x1="8.59" y1="178.67" x2="292.05" y2="178.67"/><line class="cls-1" x1="8.59" y1="221.19" x2="292.05" y2="221.19"/><line class="cls-1" x1="8.59" y1="235.36" x2="292.05" y2="235.36"/><line class="cls-1" x1="8.59" y1="249.53" x2="292.05" y2="249.53"/><line class="cls-1" x1="8.59" y1="263.7" x2="292.05" y2="263.7"/><line class="cls-1" x1="8.59" y1="292.05" x2="292.05" y2="292.05"/><line class="cls-1" x1="8.59" y1="277.88" x2="292.05" y2="277.88"/><line class="cls-1" x1="8.59" y1="164.49" x2="292.05" y2="164.49"/><line class="cls-1" x1="8.59" y1="93.63" x2="292.05" y2="93.63"/><line class="cls-1" x1="8.59" y1="79.45" x2="292.05" y2="79.45"/><line class="cls-1" x1="8.59" y1="65.28" x2="292.05" y2="65.28"/><line class="cls-1" x1="8.59" y1="107.8" x2="292.05" y2="107.8"/><line class="cls-1" x1="8.59" y1="121.97" x2="292.05" y2="121.97"/><line class="cls-1" x1="8.59" y1="136.15" x2="292.05" y2="136.15"/><line class="cls-1" x1="8.59" y1="51.11" x2="292.05" y2="51.11"/><line class="cls-1" x1="8.59" y1="36.93" x2="292.05" y2="36.93"/><line class="cls-1" x1="8.59" y1="22.76" x2="292.05" y2="22.76"/><line class="cls-1" x1="8.59" y1="8.59" x2="292.05" y2="8.59"/><line class="cls-2" x1="207.01" y1="292.05" x2="207.01" y2="8.59"/><line class="cls-2" x1="192.84" y1="292.05" x2="192.84" y2="8.59"/><line class="cls-2" x1="178.67" y1="292.05" x2="178.67" y2="8.59"/><line class="cls-2" x1="221.18" y1="292.05" x2="221.19" y2="8.59"/><line class="cls-2" x1="235.36" y1="292.05" x2="235.36" y2="8.59"/><line class="cls-2" x1="249.53" y1="292.05" x2="249.53" y2="8.59"/><line class="cls-2" x1="263.7" y1="292.05" x2="263.7" y2="8.59"/><line class="cls-2" x1="292.05" y1="292.05" x2="292.05" y2="8.59"/><line class="cls-2" x1="277.88" y1="292.05" x2="277.88" y2="8.59"/><line class="cls-2" x1="164.49" y1="292.05" x2="164.49" y2="8.59"/><line class="cls-2" x1="93.63" y1="292.05" x2="93.63" y2="8.59"/><line class="cls-2" x1="79.45" y1="292.05" x2="79.45" y2="8.59"/><line class="cls-2" x1="65.28" y1="292.05" x2="65.28" y2="8.59"/><line class="cls-2" x1="107.8" y1="292.05" x2="107.8" y2="8.59"/><line class="cls-2" x1="121.97" y1="292.05" x2="121.97" y2="8.59"/><line class="cls-2" x1="136.15" y1="292.05" x2="136.15" y2="8.59"/><line class="cls-3" x1="150.32" y1="292.05" x2="150.32" y2="8.59"/><line class="cls-2" x1="51.11" y1="292.05" x2="51.11" y2="8.59"/><line class="cls-2" x1="36.93" y1="292.05" x2="36.93" y2="8.59"/><line class="cls-2" x1="22.76" y1="292.05" x2="22.76" y2="8.59"/><line class="cls-2" x1="8.59" y1="292.05" x2="8.59" y2="8.59"/><line class="cls-3" x1="8.59" y1="150.32" x2="292.05" y2="150.32"/><text class="cls-4" transform="translate(162.1 157.41) scale(1.39 1)">1</text><text class="cls-4" transform="translate(143.23 138.15) scale(1.39 1)">1</text><text class="cls-4" transform="translate(143.23 124.65) scale(1.39 1)">2</text><text class="cls-4" transform="translate(143.23 109.89) scale(1.39 1)">3</text><text class="cls-4" transform="translate(143.23 96.39) scale(1.39 1)">4</text><text class="cls-4" transform="translate(143.23 81.45) scale(1.39 1)">5</text><text class="cls-4" transform="translate(140.35 223.11) scale(1.39 1)">-5</text><text class="cls-4" transform="translate(140.35 209.61) scale(1.39 1)">-4</text><text class="cls-4" transform="translate(140.35 194.85) scale(1.39 1)">-3</text><text class="cls-4" transform="translate(140.35 181.35) scale(1.39 1)">-2</text><text class="cls-4" transform="translate(140.35 166.41) scale(1.39 1)">-1</text><text class="cls-4" transform="translate(140.35 280.89) scale(1.39 1)">-9</text><text class="cls-4" transform="translate(140.35 266.13) scale(1.39 1)">-8</text><text class="cls-4" transform="translate(140.35 252.63) scale(1.39 1)">-7</text><text class="cls-4" transform="translate(140.35 237.69) scale(1.39 1)">-6</text><text class="cls-4" transform="translate(143.23 67.95) scale(1.39 1)">6</text><text class="cls-4" transform="translate(143.23 53.01) scale(1.39 1)">7</text><text class="cls-4" transform="translate(143.23 39.51) scale(1.39 1)">8</text><text class="cls-4" transform="translate(143.23 25.11) scale(1.39 1)">9</text><text class="cls-4" transform="translate(176.5 157.41) scale(1.39 1)">2</text><text class="cls-4" transform="translate(190.9 157.41) scale(1.39 1)">3</text><text class="cls-4" transform="translate(117.34 157.4) scale(1.39 1)">-2</text><text class="cls-4" transform="translate(131.74 157.41) scale(1.39 1)">-1</text><text class="cls-4" transform="translate(144.46 156.24) scale(1.39 1)">0</text><text class="cls-4" transform="translate(74.86 157.41) scale(1.39 1)">-5</text><text class="cls-4" transform="translate(89.26 157.41) scale(1.39 1)">-4</text><text class="cls-4" transform="translate(103.66 157.41) scale(1.39 1)">-3</text><text class="cls-4" transform="translate(32.38 157.41) scale(1.39 1)">-8</text><text class="cls-4" transform="translate(46.78 157.41) scale(1.39 1)">-7</text><text class="cls-4" transform="translate(61.18 157.41) scale(1.39 1)">-6</text><text class="cls-4" transform="translate(18.7 157.41) scale(1.39 1)">-9</text><text class="cls-4" transform="translate(205.12 157.41) scale(1.39 1)">4</text><text class="cls-4" transform="translate(218.8 157.41) scale(1.39 1)">5</text><text class="cls-4" transform="translate(233.02 157.41) scale(1.39 1)">6</text><text class="cls-4" transform="translate(247.42 157.41) scale(1.39 1)">7</text><text class="cls-4" transform="translate(261.82 157.41) scale(1.39 1)">8</text><text class="cls-4" transform="translate(276.04 157.41) scale(1.39 1)">9</text><line class="cls-1" x1="1.5" y1="1.5" x2="299.14" y2="1.5"/><line class="cls-1" x1="299.14" y1="299.14" x2="299.14" y2="1.5"/><line class="cls-1" x1="1.5" y1="299.14" x2="1.5" y2="1.5"/><line class="cls-1" x1="1.5" y1="299.14" x2="299.14" y2="299.14"/></g></g></svg>